<svg width="33" height="32" viewBox="0 0 33 32" fill="none" xmlns="http://www.w3.org/2000/svg">
<circle cx="16.5" cy="16" r="16" fill="#E84142"/>
<path fill-rule="evenodd" clip-rule="evenodd" d="M17.4573 4.74936C16.903 3.79188 16.0211 3.79188 15.4668 4.74936L5.40065 22.4753C4.84632 23.4454 5.29986 24.2139 6.40852 24.2139H11.4605C12.481 24.1509 13.4006 23.6092 13.955 22.7525L20.04 12.2076C20.481 11.3005 20.481 10.2297 20.04 9.32259L18.2258 6.13519L17.4573 4.74936ZM24.148 16.416C23.5937 15.4585 22.6992 15.4585 22.1448 16.416L18.6299 22.4759C18.0881 23.4333 18.5417 24.2145 19.6377 24.2145H26.5921C27.7007 24.2145 28.1543 23.4333 27.6 22.4759L24.148 16.416Z" fill="white"/>
</svg>
