<svg width="55" height="55" viewBox="0 0 55 55" fill="none" xmlns="http://www.w3.org/2000/svg">
<path fill-rule="evenodd" clip-rule="evenodd" d="M0.686979 19.5072C3.41625 21.8802 3.8244 14.0877 18.1209 10.0865C32.4174 6.08534 35.9758 10.8909 40.9698 14.7538C41.3214 15.0595 41.78 15.213 42.2448 15.1806C42.7095 15.1481 43.1424 14.9324 43.4481 14.5808C43.7537 14.2292 43.9073 13.7706 43.8748 13.3058C43.8424 12.8411 43.6266 12.4082 43.275 12.1025C41.1196 9.64348 38.6407 7.48809 35.906 5.6953C31.9256 3.75678 27.5137 2.87379 23.0938 3.13106C18.6739 3.38833 14.3943 4.77723 10.6656 7.16448C6.59611 9.86292 3.11516 13.3575 0.432607 17.4374C0.220898 17.756 0.130173 18.1398 0.176827 18.5194C0.223481 18.899 0.404438 19.2494 0.686979 19.5072Z" fill="#7D5FFF"/>
<path fill-rule="evenodd" clip-rule="evenodd" d="M44.6159 15.0486L43.7802 15.1436C36.8642 18.3731 34.2198 18.2648 33.5079 19.0836C33.3738 19.2762 33.2852 19.4967 33.2488 19.7286C33.2124 19.9604 33.2291 20.1975 33.2977 20.4219C33.3663 20.6464 33.4849 20.8523 33.6447 21.0242C33.8044 21.1961 34.0011 21.3295 34.22 21.4143C37.9888 21.3785 41.7493 21.0547 45.4688 20.4459C47.9114 19.7626 50.8118 19.3404 50.5641 16.318C50.4653 14.6464 50.1531 12.9944 49.635 11.4021C49.2128 10.0766 45.0322 0.553548 44.6813 0.248443C44.348 0.0810673 43.9748 0.0094617 43.6033 0.0415975C43.2318 0.0737333 42.8764 0.208355 42.5768 0.430468C42.2773 0.652579 42.0452 0.95347 41.9065 1.29965C41.7678 1.64583 41.7279 2.0237 41.7912 2.39122C42.2745 6.16625 44.0919 10.6905 44.6159 15.0486Z" fill="#7D5FFF"/>
<path fill-rule="evenodd" clip-rule="evenodd" d="M54.313 35.4928C51.5838 33.1197 51.1756 40.9123 36.8791 44.9135C22.5826 48.9146 19.0242 44.1091 14.0302 40.2462C13.6786 39.9405 13.22 39.787 12.7552 39.8194C12.2905 39.8519 11.8576 40.0676 11.5519 40.4192C11.2463 40.7708 11.0927 41.2294 11.1252 41.6942C11.1576 42.1589 11.3734 42.5918 11.725 42.8975C13.8804 45.3565 16.3593 47.5119 19.094 49.3047C23.0744 51.2432 27.4863 52.1262 31.9062 51.8689C36.3261 51.6117 40.6057 50.2228 44.3344 47.8355C48.4039 45.1371 51.8848 41.6425 54.5674 37.5625C54.7791 37.244 54.8698 36.8602 54.8232 36.4806C54.7765 36.101 54.5956 35.7506 54.313 35.4928Z" fill="#7D5FFF"/>
<path fill-rule="evenodd" clip-rule="evenodd" d="M10.3841 39.9514L11.2198 39.8564C18.1358 36.6269 20.7802 36.7352 21.4921 35.9164C21.6262 35.7238 21.7148 35.5033 21.7512 35.2714C21.7876 35.0396 21.7709 34.8025 21.7023 34.5781C21.6337 34.3536 21.5151 34.1477 21.3553 33.9758C21.1956 33.8039 20.9989 33.6705 20.78 33.5857C17.0112 33.6215 13.2507 33.9453 9.53121 34.5541C7.08856 35.2374 4.18822 35.6596 4.43585 38.682C4.53468 40.3535 4.84694 42.0056 5.36502 43.5978C5.78717 44.9234 9.96781 54.4464 10.3187 54.7515C10.652 54.9189 11.0252 54.9905 11.3967 54.9584C11.7682 54.9263 12.1236 54.7916 12.4232 54.5695C12.7227 54.3474 12.9548 54.0465 13.0935 53.7003C13.2322 53.3542 13.2721 52.9763 13.2088 52.6088C12.7255 48.8337 10.9081 44.3095 10.3841 39.9514Z" fill="#7D5FFF"/>
</svg>
