<svg width="65" height="64" viewBox="0 0 65 64" fill="none" xmlns="http://www.w3.org/2000/svg">
<path d="M64 32C64 49.397 49.897 63.5 32.5 63.5C15.103 63.5 1 49.397 1 32C1 14.603 15.103 0.5 32.5 0.5C49.897 0.5 64 14.603 64 32Z" stroke="url(#paint0_linear_0_1)"/>
<path d="M35.6543 33.1143L32.5005 39.9612L29.3475 33.1143L27.9825 36.0785L31.2702 43.1429C31.8021 44.2862 33.1986 44.2862 33.7308 43.1429L37.0181 36.0785L35.6543 33.1143Z" fill="white" fill-opacity="0.7"/>
<path d="M44.5014 20H41.693L37.5349 29.0299L38.917 31.9998L44.5014 20Z" fill="white" fill-opacity="0.7"/>
<path d="M23.3087 20H20.5L26.0843 31.9998L27.4668 29.0299L23.3087 20Z" fill="white" fill-opacity="0.7"/>
<path d="M37.5343 29.0298L33.7307 20.8575C33.1986 19.7142 31.802 19.7142 31.2702 20.8575L27.4669 29.0298L26.0839 32.0004L20.502 43.9999H23.3107L27.4687 34.97L28.8364 31.9994L32.5022 24.0385L36.166 31.9997L37.5337 34.9703L41.6917 44.0003H44.5004L38.9158 32.0001L37.5343 29.0298Z" fill="white" fill-opacity="0.9"/>
<defs>
<linearGradient id="paint0_linear_0_1" x1="30.1855" y1="3.91125e-06" x2="35.9274" y2="69.123" gradientUnits="userSpaceOnUse">
<stop stop-color="#9E44FF"/>
<stop offset="1" stop-color="#543EFF"/>
</linearGradient>
</defs>
</svg>
