<svg width="93" height="67" viewBox="0 0 93 67" fill="none" xmlns="http://www.w3.org/2000/svg">
<path d="M64.6406 49.254C63.989 48.0127 63.1721 46.8656 62.2122 45.844C60.8836 44.4474 59.3918 43.2157 57.7689 42.1756C59.6031 40.3303 61.0149 38.1089 61.907 35.6647C62.799 33.2206 63.1499 30.6119 62.9356 28.019C62.9356 25.839 62.5045 23.6807 61.6672 21.668C60.8299 19.6553 59.6028 17.8281 58.0566 16.2914C56.5104 14.7548 54.6755 13.5391 52.6577 12.7144C50.6398 11.8896 48.4788 11.472 46.2989 11.4856C41.6084 11.3167 37.0396 12.9991 33.5789 16.1698C30.1182 19.3405 28.0434 23.7449 27.8022 28.4323C27.7267 31.4182 28.5155 34.3623 30.0738 36.9105C31.632 39.4586 33.8933 41.5023 36.5856 42.7956C34.3377 43.9833 32.2096 45.3848 30.2306 46.9806C28.3303 48.5757 26.6916 50.4585 25.3739 52.5606C24.1247 54.3733 23.2563 56.4206 22.8211 58.5786C22.386 60.7366 22.3931 62.9605 22.8422 65.1156C22.9062 65.5462 23.1374 65.9341 23.4856 66.1953C23.8338 66.4565 24.271 66.5698 24.7022 66.5106C24.9205 66.4793 25.1303 66.4045 25.3192 66.2908C25.5082 66.1772 25.6725 66.0268 25.8025 65.8487C25.9325 65.6706 26.0255 65.4683 26.0761 65.2536C26.1268 65.039 26.1339 64.8164 26.0972 64.599C26.1173 62.1269 26.8727 59.7168 28.2672 57.6756C29.564 55.66 31.052 53.7741 32.7106 52.044C35.0994 49.2918 37.6348 46.6702 40.3056 44.1906C41.9134 44.5872 43.5587 44.8123 45.2139 44.8623C45.6028 44.8766 45.9821 44.739 46.2714 44.4787C46.5607 44.2183 46.7373 43.8556 46.7639 43.4673C46.7854 43.2758 46.767 43.0819 46.7098 42.8979C46.6527 42.7138 46.558 42.5436 46.4318 42.398C46.3056 42.2524 46.1506 42.1345 45.9765 42.0517C45.8025 41.969 45.6132 41.9232 45.4206 41.9173C36.0172 41.0906 31.8839 34.7873 32.3489 28.6906C32.7271 25.3283 34.3893 22.2419 36.9886 20.0758C39.588 17.9097 42.9235 16.8313 46.2989 17.0656C49.3734 17.0102 52.3446 18.1752 54.5621 20.3055C56.7796 22.4359 58.0627 25.358 58.1306 28.4323C58.4467 29.9864 58.4527 31.5876 58.1482 33.144C57.8436 34.7003 57.2346 36.1812 56.356 37.5015C55.4774 38.8218 54.3466 39.9555 53.0285 40.8374C51.7105 41.7193 50.2312 42.3321 48.6756 42.6406C48.232 42.6926 47.8265 42.9166 47.5463 43.2644C47.2661 43.6123 47.1336 44.0561 47.1772 44.5006C47.2027 44.7184 47.2713 44.929 47.3789 45.12C47.4866 45.3111 47.6312 45.4788 47.8043 45.6134C47.9774 45.7481 48.1755 45.8469 48.3872 45.9042C48.5989 45.9616 48.8198 45.9762 49.0372 45.9473C50.84 45.752 52.5914 45.2266 54.2039 44.3973C55.5016 45.8785 56.6929 47.4496 57.7689 49.099L59.5256 51.9923C60.0939 53.0256 60.6622 54.0073 61.1789 55.0406C62.4985 57.5191 63.588 60.1132 64.4339 62.7906C64.5161 63.236 64.7719 63.6304 65.1449 63.8872C65.5179 64.144 65.9777 64.242 66.4231 64.1598C66.8684 64.0776 67.2628 63.8218 67.5196 63.4488C67.7764 63.0757 67.8744 62.616 67.7922 62.1706C67.6095 59.0671 67.0544 55.9967 66.1389 53.0256C65.7758 51.7184 65.2735 50.454 64.6406 49.254V49.254Z" fill="white"/>
<path d="M33.974 34.6695C33.4564 33.6774 32.8075 32.7606 32.045 31.944C30.9897 30.8278 29.8047 29.8434 28.5155 29.0121C29.9725 27.5373 31.094 25.7618 31.8026 23.8083C32.5111 21.8549 32.7899 19.7699 32.6196 17.6975C32.6196 15.9552 32.2772 14.2301 31.6121 12.6215C30.947 11.0129 29.9723 9.55246 28.744 8.32433C27.5158 7.09619 26.0583 6.12456 24.4555 5.46537C22.8526 4.80617 21.136 4.47241 19.4044 4.4833C15.6786 4.34825 12.0494 5.69295 9.30043 8.22709C6.55148 10.7612 4.90331 14.2815 4.71177 18.0278C4.65179 20.4143 5.27838 22.7674 6.51614 24.804C7.7539 26.8406 9.55013 28.474 11.6887 29.5077C9.90318 30.4569 8.21269 31.577 6.64069 32.8525C5.13128 34.1274 3.82957 35.6322 2.78285 37.3123C1.79057 38.7611 1.10074 40.3974 0.755079 42.1222C0.409419 43.8469 0.415121 45.6243 0.77184 47.3468C0.822659 47.6909 1.0063 48.001 1.2829 48.2097C1.55951 48.4185 1.90676 48.509 2.24931 48.4618C2.4227 48.4367 2.58934 48.377 2.73944 48.2861C2.88953 48.1953 3.02005 48.0751 3.1233 47.9327C3.22656 47.7904 3.30046 47.6287 3.34067 47.4571C3.38088 47.2856 3.38657 47.1077 3.35742 46.9339C3.37333 44.9581 3.97338 43.0319 5.08114 41.4004C6.11121 39.7895 7.29318 38.2822 8.61066 36.8994C10.5082 34.6997 12.5222 32.6044 14.6437 30.6226C15.9208 30.9395 17.2277 31.1195 18.5426 31.1594C18.8515 31.1709 19.1528 31.0609 19.3826 30.8528C19.6124 30.6447 19.7527 30.3548 19.7738 30.0445C19.7909 29.8914 19.7763 29.7365 19.7308 29.5894C19.6854 29.4423 19.6102 29.3063 19.51 29.1899C19.4097 29.0735 19.2866 28.9792 19.1484 28.9131C19.0101 28.847 18.8597 28.8104 18.7067 28.8057C11.2373 28.145 7.954 23.107 8.32337 18.2343C8.62378 15.547 9.94417 13.0802 12.0089 11.349C14.0737 9.61773 16.7232 8.7558 19.4044 8.94309C21.8466 8.8988 24.2068 9.8299 25.9682 11.5326C27.7297 13.2352 28.7489 15.5708 28.8028 18.0278C29.0539 19.2699 29.0587 20.5497 28.8168 21.7936C28.5749 23.0375 28.0911 24.2211 27.3932 25.2764C26.6953 26.3316 25.797 27.2377 24.7501 27.9426C23.7031 28.6474 22.528 29.1372 21.2923 29.3838C20.9399 29.4253 20.6179 29.6044 20.3953 29.8824C20.1727 30.1604 20.0675 30.5151 20.1021 30.8704C20.1224 31.0445 20.1768 31.2128 20.2624 31.3654C20.3479 31.5181 20.4627 31.6522 20.6002 31.7598C20.7377 31.8674 20.8951 31.9464 21.0633 31.9922C21.2314 32.038 21.4069 32.0497 21.5796 32.0266C23.0116 31.8705 24.4028 31.4506 25.6837 30.7878C26.7145 31.9716 27.6608 33.2273 28.5155 34.5456L29.9109 36.8581C30.3624 37.684 30.8138 38.4685 31.2242 39.2944C32.2724 41.2753 33.1379 43.3487 33.8098 45.4886C33.8751 45.8445 34.0783 46.1598 34.3746 46.365C34.6709 46.5702 35.0361 46.6486 35.3899 46.5829C35.7436 46.5172 36.0569 46.3128 36.2609 46.0146C36.4649 45.7165 36.5428 45.349 36.4775 44.9931C36.3323 42.5125 35.8914 40.0586 35.1641 37.6839C34.8757 36.6392 34.4767 35.6286 33.974 34.6695Z" fill="white"/>
<path d="M89.974 30.6695C89.4564 29.6774 88.8075 28.7606 88.045 27.944C86.9897 26.8278 85.8047 25.8434 84.5155 25.0121C85.9725 23.5373 87.094 21.7618 87.8026 19.8083C88.5111 17.8549 88.7899 15.7699 88.6196 13.6975C88.6196 11.9552 88.2772 10.2301 87.6121 8.62149C86.947 7.01286 85.9723 5.55246 84.744 4.32433C83.5158 3.09619 82.0583 2.12456 80.4555 1.46537C78.8526 0.806169 77.136 0.472413 75.4044 0.483302C71.6786 0.348246 68.0494 1.69295 65.3004 4.22709C62.5515 6.76124 60.9033 10.2815 60.7118 14.0278C60.6518 16.4143 61.2784 18.7674 62.5161 20.804C63.7539 22.8406 65.5501 24.474 67.6887 25.5077C65.9032 26.4569 64.2127 27.577 62.6407 28.8525C61.1313 30.1274 59.8296 31.6322 58.7828 33.3123C57.7906 34.7611 57.1007 36.3974 56.7551 38.1222C56.4094 39.8469 56.4151 41.6243 56.7718 43.3468C56.8227 43.6909 57.0063 44.001 57.2829 44.2097C57.5595 44.4185 57.9068 44.509 58.2493 44.4618C58.4227 44.4367 58.5893 44.377 58.7394 44.2861C58.8895 44.1953 59.0201 44.0751 59.1233 43.9327C59.2266 43.7904 59.3005 43.6287 59.3407 43.4571C59.3809 43.2856 59.3866 43.1077 59.3574 42.9339C59.3733 40.9581 59.9734 39.0319 61.0811 37.4004C62.1112 35.7895 63.2932 34.2822 64.6107 32.8994C66.5082 30.6997 68.5222 28.6044 70.6437 26.6226C71.9208 26.9395 73.2277 27.1195 74.5426 27.1594C74.8515 27.1709 75.1528 27.0609 75.3826 26.8528C75.6124 26.6447 75.7527 26.3548 75.7738 26.0445C75.7909 25.8914 75.7763 25.7365 75.7308 25.5894C75.6854 25.4423 75.6102 25.3063 75.51 25.1899C75.4097 25.0735 75.2866 24.9792 75.1484 24.9131C75.0101 24.847 74.8597 24.8104 74.7067 24.8057C67.2373 24.145 63.954 19.107 64.3234 14.2343C64.6238 11.547 65.9442 9.08022 68.0089 7.34898C70.0737 5.61773 72.7232 4.7558 75.4044 4.94309C77.8466 4.8988 80.2068 5.8299 81.9682 7.53257C83.7297 9.23524 84.7489 11.5708 84.8028 14.0278C85.0539 15.2699 85.0587 16.5497 84.8168 17.7936C84.5749 19.0375 84.0911 20.2211 83.3932 21.2764C82.6953 22.3316 81.797 23.2377 80.7501 23.9426C79.7031 24.6474 78.528 25.1372 77.2923 25.3838C76.9399 25.4253 76.6179 25.6044 76.3953 25.8824C76.1727 26.1604 76.0675 26.5151 76.1021 26.8704C76.1224 27.0445 76.1768 27.2128 76.2624 27.3654C76.3479 27.5181 76.4627 27.6522 76.6002 27.7598C76.7377 27.8674 76.8951 27.9464 77.0633 27.9922C77.2314 28.038 77.4069 28.0497 77.5796 28.0266C79.0116 27.8705 80.4028 27.4506 81.6837 26.7878C82.7145 27.9716 83.6608 29.2273 84.5155 30.5456L85.9109 32.8581C86.3624 33.684 86.8138 34.4685 87.2242 35.2944C88.2724 37.2753 89.1379 39.3487 89.8098 41.4886C89.8751 41.8445 90.0783 42.1598 90.3746 42.365C90.6709 42.5702 91.0361 42.6486 91.3899 42.5829C91.7436 42.5172 92.0569 42.3128 92.2609 42.0146C92.4649 41.7165 92.5428 41.349 92.4775 40.9931C92.3323 38.5125 91.8914 36.0586 91.1641 33.6839C90.8757 32.6392 90.4767 31.6286 89.974 30.6695Z" fill="white"/>
</svg>
